<?xml version="1.0" standalone="no"?>
<!DOCTYPE svg PUBLIC "-//W3C//DTD SVG 20010904//EN"
 "http://www.w3.org/TR/2001/REC-SVG-20010904/DTD/svg10.dtd">
<svg version="1.0" xmlns="http://www.w3.org/2000/svg"
 width="337.000000pt" height="265.000000pt" viewBox="0 0 337.000000 265.000000"
 preserveAspectRatio="xMidYMid meet">
<metadata>
Created by potrace 1.16, written by Peter Selinger 2001-2019
</metadata>
<g transform="translate(0.000000,265.000000) scale(0.100000,-0.100000)"
fill="#000000" stroke="none">
<path d="M1450 2413 c-22 -13 -40 -20 -40 -16 0 20 -114 -118 -115 -139 0 -3
-3 -10 -7 -14 -5 -4 -8 -17 -8 -29 0 -13 -6 -28 -14 -34 -8 -7 -12 -21 -9 -31
3 -11 1 -20 -5 -20 -5 0 -13 -7 -16 -16 -4 -9 -2 -13 5 -8 6 4 5 -4 -2 -17 -7
-13 -12 -28 -11 -33 2 -5 -3 -16 -11 -25 -23 -27 -32 -45 -18 -36 10 6 11 3 2
-13 -6 -12 -16 -24 -21 -27 -6 -3 -10 -12 -10 -18 0 -7 4 -6 10 3 6 9 10 10
10 3 0 -6 -7 -19 -16 -27 -8 -9 -12 -21 -8 -27 5 -8 3 -9 -6 -4 -10 6 -12 4
-7 -8 3 -9 2 -19 -3 -22 -5 -3 -6 -13 -3 -22 4 -10 2 -14 -5 -9 -12 7 -27 -28
-18 -43 9 -14 -5 -42 -16 -35 -6 4 -7 -2 -3 -16 5 -15 4 -20 -4 -16 -11 7 -16
-11 -13 -49 2 -15 0 -16 -7 -7 -6 10 -10 7 -15 -13 -4 -14 -4 -31 0 -37 5 -7
2 -8 -6 -3 -9 6 -10 2 -5 -15 5 -17 4 -21 -6 -15 -9 6 -11 2 -6 -14 3 -12 -1
-27 -9 -35 -8 -8 -11 -22 -7 -32 4 -12 3 -15 -5 -10 -11 7 -13 2 -16 -45 -1
-8 -9 -23 -18 -33 -20 -19 -24 -41 -7 -30 7 4 2 -7 -11 -24 -12 -16 -20 -35
-16 -40 3 -6 2 -13 -4 -17 -6 -4 -8 -11 -5 -16 4 -5 -3 -21 -14 -35 -23 -30
-28 -49 -8 -38 6 5 -1 -7 -16 -25 -19 -23 -27 -43 -25 -61 1 -15 -3 -35 -11
-43 -7 -9 -9 -22 -5 -28 4 -7 -1 -18 -11 -25 -10 -7 -15 -20 -12 -28 3 -8 2
-16 -4 -18 -5 -2 -18 -27 -29 -56 -11 -30 -16 -51 -10 -47 14 9 13 -8 -2 -23
-16 -16 -15 -112 2 -122 7 -4 10 -15 7 -25 -4 -9 -3 -14 1 -11 8 5 37 -56 33
-69 -2 -7 40 -49 59 -58 8 -4 29 -16 45 -26 17 -11 38 -20 48 -20 10 -1 20 -8
23 -16 4 -9 13 -13 24 -10 9 3 23 -1 30 -10 7 -8 16 -12 22 -9 5 3 16 0 24 -7
8 -7 27 -14 40 -15 14 -2 38 -11 52 -21 15 -9 31 -16 36 -15 5 2 18 -5 29 -15
14 -13 18 -13 12 -3 -7 12 -5 12 11 -1 10 -9 25 -14 33 -11 9 3 11 0 6 -8 -5
-9 -4 -11 3 -6 7 4 18 4 24 0 7 -5 19 -9 28 -10 21 -3 124 -48 128 -56 2 -4 9
-5 16 -2 8 3 20 -2 29 -10 8 -8 17 -12 21 -9 3 3 11 2 18 -4 7 -5 32 -15 56
-23 23 -7 42 -17 42 -22 0 -5 4 -7 9 -4 4 3 26 -4 47 -15 26 -13 65 -21 119
-23 53 -3 73 -1 60 5 -15 7 -12 8 12 3 23 -4 38 -1 49 10 8 9 23 16 32 16 13
0 14 2 4 9 -11 6 -10 10 5 16 10 5 21 8 25 7 4 -1 13 8 19 21 7 12 17 25 23
29 6 4 11 11 12 15 3 24 27 72 34 68 4 -3 11 2 14 11 9 24 7 31 -4 14 -6 -9
-10 -10 -10 -3 0 7 9 21 21 31 11 11 21 33 21 51 1 17 5 31 10 31 4 0 8 12 8
26 0 16 4 23 12 18 8 -5 9 0 6 14 -4 12 -2 22 4 22 5 0 7 9 3 19 -3 10 0 25 7
32 7 8 19 36 26 64 7 27 18 52 24 56 6 4 7 12 4 18 -4 6 -2 11 3 11 6 0 10 3
9 8 -1 4 4 18 11 31 9 17 10 21 1 16 -9 -5 -8 -1 1 16 7 13 12 28 11 33 -2 5
4 16 13 26 8 9 12 20 8 23 -3 4 2 16 12 27 10 11 15 23 12 26 -3 4 -1 16 6 28
13 22 14 28 16 64 1 15 5 21 13 16 7 -4 8 -3 4 5 -4 6 -2 18 4 26 7 8 9 15 6
15 -4 0 -1 10 6 23 7 12 11 26 10 30 -1 4 3 18 10 30 7 12 11 26 10 31 -2 4 1
13 6 20 5 6 14 30 22 53 7 23 17 40 21 37 5 -3 6 2 3 10 -3 9 3 33 14 55 11
21 18 41 16 44 -3 3 0 16 7 29 7 12 14 26 15 31 1 4 3 10 4 15 1 4 2 10 1 15
0 4 4 7 11 7 6 0 9 3 5 6 -3 4 1 23 9 43 8 20 14 37 13 39 -1 3 3 14 27 77 4
11 6 23 6 28 -1 4 2 7 6 7 9 0 11 81 2 90 -3 3 -14 30 -24 60 -11 30 -30 64
-43 76 -12 11 -20 24 -16 27 3 4 -1 7 -10 7 -10 0 -17 5 -17 11 0 5 -4 8 -9 4
-5 -3 -16 1 -24 9 -8 8 -17 12 -21 9 -3 -4 -20 4 -38 17 -17 12 -28 18 -24 11
5 -7 1 -9 -8 -5 -9 3 -16 11 -16 16 0 6 -6 8 -14 5 -8 -3 -24 3 -37 14 -25 22
-33 24 -22 7 4 -7 -5 -5 -20 5 -15 9 -27 15 -27 12 0 -3 -10 0 -22 7 -13 6
-32 12 -42 13 -11 1 -22 7 -24 14 -2 6 -7 9 -12 6 -12 -7 -71 16 -64 26 3 5
-2 6 -10 3 -9 -3 -16 -1 -16 5 0 7 -6 11 -12 10 -24 -3 -78 13 -72 22 3 5 -8
9 -25 9 -16 0 -36 7 -44 15 -8 8 -17 12 -20 9 -4 -5 -20 1 -102 36 -22 9 -52
20 -67 24 -16 3 -28 11 -28 17 0 6 -9 8 -20 4 -11 -3 -20 -2 -20 3 0 13 -39
22 -123 30 -58 6 -72 4 -107 -15z m168 -124 c48 -20 53 -22 297 -115 11 -4 22
-8 25 -8 14 -3 126 -45 175 -67 17 -7 32 -13 35 -14 3 -1 12 -5 20 -8 8 -3 39
-14 68 -23 28 -9 52 -21 52 -26 0 -5 4 -7 9 -4 5 3 44 -8 87 -26 79 -32 124
-70 132 -112 9 -56 2 -117 -17 -140 -6 -7 -8 -15 -5 -19 3 -3 -2 -17 -11 -31
-10 -14 -14 -26 -11 -26 4 0 1 -10 -6 -22 -6 -13 -12 -31 -13 -40 -1 -10 -10
-28 -21 -40 -10 -12 -13 -18 -6 -14 12 7 12 4 1 -15 -7 -13 -12 -28 -11 -33 2
-4 -4 -19 -13 -32 -8 -13 -13 -24 -10 -24 3 0 0 -10 -7 -22 -6 -13 -12 -30
-13 -38 -3 -26 -26 -90 -33 -90 -4 0 -8 -12 -9 -27 0 -15 -6 -29 -12 -31 -6
-2 -9 -8 -6 -12 3 -5 1 -17 -4 -27 -6 -10 -22 -54 -37 -98 -15 -44 -30 -84
-35 -89 -4 -5 -5 -15 -2 -22 3 -8 -2 -16 -10 -20 -9 -3 -13 -12 -11 -19 3 -7
-2 -25 -11 -39 -9 -14 -16 -29 -16 -33 1 -18 -13 -59 -27 -80 -8 -13 -11 -23
-8 -23 4 0 1 -10 -6 -22 -7 -13 -12 -27 -13 -33 0 -5 -6 -21 -14 -35 -8 -14
-14 -27 -13 -30 3 -11 -11 -56 -21 -68 -6 -8 -12 -21 -13 -30 -9 -67 -43 -122
-93 -150 -49 -28 -85 -28 -124 0 -17 12 -27 16 -22 8 9 -15 -8 -7 -39 19 -15
12 -17 13 -11 2 5 -8 -7 -4 -25 9 -18 13 -30 19 -26 12 10 -16 -7 -15 -23 0
-6 7 -15 13 -19 13 -4 1 -17 6 -29 13 -13 7 -23 10 -23 6 0 -3 -11 1 -25 10
-14 9 -30 14 -34 11 -5 -3 -15 1 -23 8 -7 8 -18 12 -24 10 -7 -2 -18 3 -27 11
-8 8 -17 12 -21 9 -3 -3 -12 0 -20 6 -8 7 -27 14 -43 16 -15 1 -29 7 -31 13
-2 6 -9 9 -16 6 -8 -3 -20 1 -27 9 -8 7 -19 12 -25 10 -7 -2 -19 3 -28 12 -9
9 -16 13 -16 9 0 -3 -7 -1 -15 6 -8 7 -15 9 -15 4 0 -4 -5 -3 -11 3 -6 6 -18
9 -25 6 -8 -3 -16 2 -20 10 -3 9 -12 13 -21 10 -8 -3 -18 -1 -22 5 -3 6 -19
13 -34 16 -14 2 -32 8 -39 13 -7 4 -20 8 -28 10 -8 1 -16 7 -18 13 -2 5 -8 8
-13 4 -5 -3 -12 2 -15 10 -3 9 -12 16 -20 16 -7 0 -18 9 -25 21 -15 29 -19
119 -6 144 6 11 11 27 12 35 1 8 11 38 22 65 31 75 36 89 34 98 0 4 4 18 11
30 7 12 13 24 13 27 8 35 27 90 34 94 5 3 12 23 16 43 3 21 13 48 21 61 8 12
12 27 9 32 -3 5 0 12 6 15 5 4 8 13 5 20 -3 8 5 26 17 41 12 16 15 24 7 19
-11 -7 -10 -2 3 19 10 15 16 30 13 33 -3 3 0 15 6 27 12 21 14 27 17 45 0 5 8
17 17 25 10 10 11 16 4 16 -8 0 -7 8 4 25 9 14 14 25 10 25 -3 0 1 12 11 26 9
14 14 28 11 31 -3 3 0 15 6 27 7 11 11 25 10 30 -2 5 5 17 14 27 10 11 15 22
11 25 -7 7 42 148 54 152 4 2 6 9 3 16 -3 8 2 21 11 30 9 9 14 20 11 25 -12
18 37 117 76 153 51 48 98 56 166 27z"/>
<path d="M1068 976 c-10 -7 -15 -16 -11 -19 3 -4 2 -7 -3 -7 -5 0 -10 -9 -11
-20 -1 -11 -9 -34 -17 -51 -12 -23 -13 -36 -4 -55 6 -13 17 -24 23 -24 7 0 18
-6 25 -14 6 -8 17 -13 24 -10 8 3 20 -1 27 -9 8 -7 19 -12 25 -10 6 2 16 -3
23 -11 16 -19 42 -10 65 21 11 15 14 23 8 19 -17 -10 -15 9 2 24 8 6 13 17 10
24 -3 8 2 20 10 29 8 8 12 17 9 21 -4 3 -1 6 5 6 7 0 3 9 -8 20 -12 12 -26 17
-36 13 -12 -4 -15 -3 -10 5 4 8 2 10 -7 6 -8 -3 -22 2 -31 11 -9 9 -16 13 -16
9 0 -3 -6 -1 -14 5 -7 6 -21 9 -30 5 -10 -4 -18 0 -22 10 -7 19 -13 20 -36 2z"/>
<path d="M1325 890 c-3 -6 -11 -8 -16 -5 -5 4 -10 -2 -11 -12 0 -10 -2 -24 -2
-31 -1 -7 -7 -17 -15 -21 -8 -6 -11 -16 -6 -31 4 -14 3 -20 -3 -16 -5 3 -13
-1 -16 -10 -9 -23 -8 -26 7 -18 9 6 9 4 -1 -8 -11 -14 -10 -17 7 -23 12 -3 21
-10 21 -15 0 -5 6 -7 14 -4 7 3 21 -2 29 -11 9 -9 19 -15 22 -14 3 1 16 -2 28
-6 46 -14 72 -14 89 2 20 18 24 38 6 27 -7 -4 -4 2 6 14 11 12 16 25 13 29 -4
3 -3 11 2 17 17 22 21 64 7 75 -7 6 -16 8 -19 4 -4 -3 -16 2 -27 12 -14 13
-20 14 -20 5 0 -9 -5 -8 -19 4 -10 9 -28 19 -41 21 -12 2 -28 9 -35 15 -9 8
-15 8 -20 0z"/>
<path d="M1560 790 c0 -6 -4 -9 -8 -6 -4 3 -13 -8 -19 -25 -6 -16 -7 -27 -2
-24 5 4 6 -1 3 -9 -3 -9 -11 -16 -16 -16 -6 0 -8 -7 -4 -15 7 -20 -4 -46 -17
-38 -7 4 -8 0 -4 -11 4 -10 7 -20 7 -22 0 -2 9 -4 20 -4 11 0 23 -7 27 -16 3
-8 11 -13 18 -10 7 2 22 -2 34 -10 11 -8 21 -12 21 -8 0 3 10 0 23 -9 31 -20
72 -17 71 6 -1 9 3 17 8 17 6 0 8 6 5 14 -3 7 1 23 8 34 8 10 11 23 7 27 -4 3
1 12 10 19 17 13 15 61 -3 51 -4 -3 -18 0 -31 6 -48 25 -58 29 -77 29 -11 0
-21 5 -23 10 -4 14 -58 23 -58 10z"/>
<path d="M1784 683 c4 -24 1 -35 -11 -41 -10 -6 -14 -16 -10 -26 4 -10 1 -19
-7 -22 -8 -3 -16 -14 -19 -24 -5 -21 20 -63 33 -55 5 3 17 2 27 -3 60 -31 122
-49 137 -40 15 9 36 45 32 58 0 3 9 19 22 37 12 17 22 38 22 45 0 13 -37 37
-65 43 -5 2 -27 10 -48 18 -20 9 -41 17 -45 18 -4 0 -15 5 -24 10 -11 6 -19 5
-24 -2 -4 -8 -9 -7 -16 2 -7 10 -8 4 -4 -18z"/>
<path d="M940 1887 c0 -5 -10 -5 -21 -2 -15 5 -19 4 -15 -4 4 -6 2 -11 -3 -11
-6 0 -14 -1 -18 -2 -11 -4 -73 -68 -73 -76 0 -3 -8 -14 -17 -25 -10 -11 -12
-17 -4 -12 10 6 11 2 5 -16 -11 -30 -10 -78 1 -103 6 -15 5 -18 -6 -12 -8 4
-5 -1 6 -11 11 -10 26 -30 34 -45 7 -14 24 -29 37 -32 13 -4 24 -11 24 -17 0
-6 5 -7 12 -3 6 4 16 1 22 -7 15 -19 66 -19 66 0 0 8 8 23 18 34 9 11 12 17 5
13 -13 -7 10 58 28 80 5 6 5 14 1 18 -4 4 1 14 12 21 10 8 16 21 13 29 -3 8 1
20 8 26 8 7 12 17 9 22 -3 5 1 17 9 26 21 24 9 100 -14 86 -5 -3 -9 0 -9 6 0
6 -4 8 -10 5 -5 -3 -10 -1 -10 5 0 7 -6 10 -14 7 -8 -3 -17 -3 -20 0 -9 9 -76
9 -76 0z"/>
<path d="M710 1515 c-7 -8 -16 -15 -21 -15 -23 0 -99 -99 -91 -119 2 -8 1 -11
-4 -8 -5 3 -8 -16 -7 -41 1 -45 1 -45 -6 -12 -7 27 -9 30 -10 11 -1 -32 20
-94 37 -104 7 -5 10 -12 8 -16 -3 -4 6 -14 19 -21 13 -7 22 -18 18 -23 -3 -6
-1 -7 5 -3 6 3 17 0 25 -8 8 -8 17 -12 21 -9 3 4 6 1 6 -6 0 -7 4 -10 9 -6 11
6 61 -15 61 -26 0 -5 7 -5 17 -2 11 4 14 3 9 -5 -12 -19 27 0 46 23 10 11 15
26 13 33 -3 7 0 10 6 7 6 -4 10 -1 8 6 -4 32 2 58 16 72 8 8 12 17 9 19 -6 7
23 75 36 83 6 4 8 15 5 24 -3 10 1 24 9 30 8 7 12 20 9 28 -4 11 -2 14 5 9 7
-4 12 -2 12 3 0 6 -7 11 -16 11 -8 0 -12 5 -9 10 4 6 3 9 -2 8 -17 -5 -74 12
-69 21 3 5 -1 11 -9 15 -8 3 -15 0 -15 -7 -1 -8 -5 -6 -13 4 -7 9 -31 16 -61
18 -28 1 -53 4 -57 6 -4 3 -12 -2 -19 -10z"/>
<path d="M2605 1463 c-8 -10 -14 -20 -13 -23 1 -3 -5 -16 -12 -30 -8 -14 -15
-27 -15 -30 -2 -11 -17 -56 -25 -75 -13 -31 -22 -60 -18 -60 2 -1 -5 -13 -15
-29 -10 -15 -16 -30 -13 -34 3 -3 -1 -16 -9 -29 -9 -13 -13 -23 -9 -23 3 0 -1
-11 -10 -25 -9 -14 -14 -25 -11 -25 3 0 0 -10 -7 -22 -7 -13 -11 -28 -10 -34
1 -6 -4 -17 -12 -23 -8 -7 -12 -20 -9 -28 5 -12 3 -14 -7 -8 -9 5 -11 4 -6 -3
4 -7 4 -18 -1 -24 -4 -7 -8 -17 -9 -23 -1 -5 -8 -23 -15 -40 -14 -35 -13 -32
-23 -67 -5 -16 -13 -28 -18 -28 -6 0 -7 -7 -4 -16 4 -10 -1 -25 -10 -35 -10
-11 -15 -19 -11 -19 9 0 -41 -130 -58 -146 -17 -17 -20 -28 -6 -20 5 4 4 -7
-2 -23 -6 -17 -14 -28 -17 -26 -3 2 -7 -8 -8 -23 -1 -15 -7 -29 -12 -30 -6 -2
-8 -8 -4 -13 3 -5 0 -9 -6 -9 -7 0 -9 -8 -5 -19 3 -12 0 -21 -10 -24 -8 -4
-12 -13 -9 -22 4 -8 -1 -17 -10 -21 -9 -3 -14 -10 -11 -14 3 -4 -2 -11 -11
-14 -8 -3 -13 -10 -10 -15 3 -5 -1 -11 -9 -15 -8 -3 -15 -13 -15 -21 0 -9 -4
-14 -9 -11 -5 3 -12 -1 -15 -10 -3 -8 -10 -12 -16 -9 -5 3 -10 2 -10 -3 0 -6
-11 -13 -25 -16 -14 -4 -25 -11 -25 -17 0 -6 -4 -8 -9 -4 -5 3 -12 1 -15 -4
-3 -5 -16 -7 -29 -4 -18 4 -19 3 -7 -6 11 -8 7 -9 -19 -4 -26 5 -32 3 -26 -7
6 -9 -1 -11 -29 -8 -20 2 -36 1 -36 -3 0 -23 201 -32 267 -11 23 7 45 11 50
10 4 -1 19 4 31 11 13 7 26 10 30 7 3 -3 14 2 25 11 10 10 21 17 23 16 11 -7
24 -2 19 7 -3 5 -1 10 5 10 17 0 96 62 116 93 11 15 27 30 37 33 9 3 15 9 12
14 -3 5 5 21 17 37 35 43 53 77 36 67 -11 -6 -11 -5 0 9 8 9 15 28 16 42 2 14
12 35 22 47 11 12 13 18 7 14 -7 -4 -13 -3 -13 3 0 5 5 11 10 13 6 2 13 19 15
37 3 19 8 37 12 40 5 3 9 17 11 31 1 13 7 27 14 31 6 4 8 11 4 17 -3 6 -1 16
6 24 7 7 15 24 16 38 2 14 9 31 14 38 6 6 7 12 4 12 -4 0 -1 10 6 23 6 12 12
30 13 40 1 11 7 22 14 26 6 4 9 14 6 23 -3 8 1 21 9 28 9 7 13 16 10 21 -3 5
1 19 8 31 6 13 13 28 13 33 2 14 14 46 31 78 8 15 12 27 9 27 -4 0 4 17 16 37
13 20 19 34 13 31 -5 -4 -10 15 -11 43 0 27 -7 56 -13 64 -7 8 -10 15 -7 15 3
0 -13 18 -35 40 -23 22 -49 40 -59 40 -10 0 -25 7 -33 15 -14 14 -17 14 -31
-2z"/>
<path d="M606 1089 c-20 -18 -43 -46 -50 -63 -21 -46 -27 -128 -10 -150 7 -11
11 -22 9 -26 -3 -5 2 -11 11 -14 8 -3 12 -11 8 -17 -4 -7 -3 -9 3 -6 6 4 20
-4 33 -18 12 -13 35 -27 51 -30 15 -4 33 -13 39 -21 7 -7 16 -12 20 -9 5 3 16
-2 24 -11 18 -18 18 -18 16 67 -1 32 3 60 9 64 6 3 11 14 11 23 0 15 -2 15
-10 2 -5 -8 -10 -10 -10 -4 0 6 9 23 20 37 23 29 26 42 8 31 -7 -4 -2 5 12 21
14 16 19 25 13 21 -15 -8 -18 10 -3 19 17 10 11 49 -9 67 -11 9 -22 14 -25 11
-3 -3 -17 4 -32 16 -15 11 -32 21 -38 21 -6 0 -4 -5 4 -10 11 -7 4 -10 -25
-10 -29 0 -36 3 -25 10 13 8 13 10 -1 10 -9 0 -32 -14 -53 -31z"/>
</g>
</svg>
